<svg width="33" height="29" viewBox="0 0 33 29" fill="none" xmlns="http://www.w3.org/2000/svg">
<path d="M30.4061 14.6537L32.689 17.0257L22.0411 28.112L16.3829 22.224L18.6657 19.8519L22.0411 23.3511L30.4061 14.6537ZM12.3064 22.224L17.1982 27.2709H0.89209V23.9063C0.89209 20.1884 6.72967 17.1771 13.937 17.1771L17.0188 17.3622L12.3064 22.224ZM13.937 0.354187C15.6668 0.354187 17.3258 1.06315 18.549 2.32511C19.7722 3.58708 20.4594 5.29867 20.4594 7.08335C20.4594 8.86804 19.7722 10.5796 18.549 11.8416C17.3258 13.1036 15.6668 13.8125 13.937 13.8125C12.2071 13.8125 10.5481 13.1036 9.3249 11.8416C8.10171 10.5796 7.41453 8.86804 7.41453 7.08335C7.41453 5.29867 8.10171 3.58708 9.3249 2.32511C10.5481 1.06315 12.2071 0.354187 13.937 0.354187Z" fill="white"/>
</svg>
