<svg width="35" height="32" viewBox="0 0 35 32" fill="none" xmlns="http://www.w3.org/2000/svg">
<path d="M23.3271 5.50007C26.7353 5.54278 29.5792 6.51682 31.5736 7.48297C32.5702 7.96571 33.3518 8.44515 33.8822 8.80219C33.891 8.80812 33.8998 8.81402 33.9084 8.81988C29.5729 10.1883 26.0678 11.3731 22.9698 14.657L22.9697 14.6571C20.254 17.5364 16.344 18.5503 11.8641 16.6284L11.167 16.3294V17.0879V27.4999H9.83345V1.00001V0.999939C9.83342 0.792904 10.0562 0.5 10.5 0.5C10.9439 0.5 11.1669 0.793037 11.1669 1.00001V1.17581L11.277 1.31293C14.025 4.73761 18.7513 5.44345 23.3271 5.50007ZM23.3271 5.50007L23.3334 5.00011M23.3271 5.50007L23.3334 5.00011M23.3334 5.00011C18.7601 4.94352 14.2575 4.22849 11.6669 1.00001L34.5112 8.6299C33.1437 7.65229 29.0041 5.07117 23.3334 5.00011ZM2.18773 24.406C3.21922 23.7196 4.68878 23.1787 6.49997 22.8541V23.8858C5.26488 24.1336 4.18967 24.4953 3.38836 24.9487C2.52972 25.4345 1.83355 26.1178 1.83355 27C1.83355 27.6126 2.17332 28.1333 2.64757 28.5451C3.12311 28.9581 3.78219 29.3074 4.5533 29.5907C6.0995 30.1588 8.20216 30.5004 10.5 30.5004C12.7978 30.5004 14.9005 30.1588 16.4468 29.5907C17.2179 29.3074 17.877 28.9582 18.3526 28.5453C18.8268 28.1335 19.1667 27.6129 19.1667 27.0003C19.1667 26.118 18.4705 25.4346 17.6117 24.9487C16.8104 24.4953 15.7351 24.1336 14.4999 23.8857V22.8541C16.3111 23.1787 17.7808 23.7196 18.8123 24.406C19.9478 25.1616 20.5 26.0518 20.5 26.9999V26.9999C20.5 28.1886 19.631 29.3056 17.8532 30.1523C16.089 30.9924 13.5438 31.5 10.5 31.5C7.45605 31.5 4.91089 30.9925 3.14673 30.1523C1.36897 29.3057 0.5 28.1887 0.5 26.9999C0.5 26.0518 1.05226 25.1616 2.18773 24.406Z" fill="#569E9E" stroke="black"/>
</svg>
