<svg width="399" height="512" viewBox="0 0 399 512" fill="none" xmlns="http://www.w3.org/2000/svg">
<path d="M388.576 134.164C370.323 75.1924 322.908 27.3874 264.835 9.40239C202.994 -9.74861 138.523 0.647385 87.955 37.9244C63.725 55.7854 43.619 79.3444 29.812 106.051C15.542 133.654 8 164.73 8 195.921C8 238.469 21.459 278.903 46.923 312.852L203.049 512L358.981 313.106L359.176 312.852C397.282 262.043 407.999 196.913 388.576 134.164ZM335.262 294.724L203.049 463.381L70.835 294.724C49.36 266.035 38.008 231.872 38.008 195.921C38.008 143.388 63.336 93.3534 105.761 62.0794C148.575 30.5184 203.32 21.7674 255.959 38.0674C304.711 53.1654 344.543 93.3874 359.912 143.036C376.44 196.438 367.455 251.718 335.262 294.724Z" fill="#F07835"/>
<path d="M203.049 90.8954C145.138 90.8954 98.023 138.01 98.023 195.921C98.023 253.832 145.138 300.947 203.049 300.947C260.96 300.947 308.075 253.832 308.075 195.921C308.075 138.01 260.96 90.8954 203.049 90.8954ZM203.049 270.94C161.684 270.94 128.03 237.287 128.03 195.921C128.03 154.556 161.683 120.902 203.049 120.902C244.415 120.902 278.068 154.555 278.068 195.921C278.068 237.286 244.414 270.94 203.049 270.94Z" fill="#E66346"/>
</svg>
