<svg width="37" height="40" viewBox="0 0 37 40" fill="none" xmlns="http://www.w3.org/2000/svg">
<path d="M35.8441 9.00007C31.0901 10.5138 27.4682 11.5919 24.2816 15.0001C21.4427 18.0371 17.3439 19.0898 12.7192 17.0879V27.9999H10.4065V1.00001C10.4064 0.447211 10.9235 0 11.5626 0C12.2017 0 12.7191 0.447211 12.7191 1.00001C15.2866 4.22849 19.749 4.94352 24.2815 5.00011C31.2189 5.08782 35.8441 9.00007 35.8441 9.00007ZM15.0313 22.2657V24.3005C17.7594 24.7832 19.6564 25.8069 19.6564 27.0003C19.6564 28.6565 16.0317 30.0004 11.5626 30.0004C7.0934 30.0004 3.46899 28.6565 3.46899 27C3.46899 25.8069 5.36584 24.7832 8.09379 24.3005V22.2657C3.89358 22.8945 1.15625 24.6563 1.15625 26.9999C1.15625 29.9433 5.43577 32 11.5626 32C17.6892 32 21.969 29.9433 21.969 26.9999C21.9691 24.6563 19.2315 22.8945 15.0313 22.2657Z" fill="#413E3E" fill-opacity="0.53"/>
<path d="M24.2752 5.50007C27.6513 5.54275 30.4687 6.51633 32.4448 7.48219C33.4321 7.96479 34.2066 8.44409 34.7321 8.80103C34.7415 8.80743 34.7509 8.8138 34.7602 8.82013C30.4629 10.1887 26.9876 11.3738 23.9164 14.6586L23.9164 14.6587C21.2258 17.537 17.3542 18.5494 12.9178 16.6291L12.2192 16.3267V17.0879V27.4999H10.9065V1.00001V0.999939C10.9064 0.789051 11.129 0.5 11.5626 0.5C11.9963 0.5 12.2191 0.789185 12.2191 1.00001V1.17459L12.3278 1.31123C15.0524 4.73729 19.7393 5.44344 24.2752 5.50007ZM24.2752 5.50007L24.2815 5.00011M24.2752 5.50007L24.2815 5.00011M24.2815 5.00011C19.749 4.94352 15.2866 4.22849 12.7191 1.00001L35.3593 8.6296C34.0035 7.65177 29.9011 5.07116 24.2815 5.00011ZM3.32866 24.4049C4.34898 23.7198 5.80234 23.1796 7.59379 22.855V23.8865C6.37026 24.1344 5.30485 24.4962 4.51052 24.9496C3.65775 25.4365 2.96899 26.1201 2.96899 27C2.96899 27.6108 3.30482 28.1311 3.77561 28.5437C4.24739 28.9571 4.90124 29.3067 5.66604 29.5902C7.1995 30.1587 9.28446 30.5004 11.5626 30.5004C13.8407 30.5004 15.9257 30.1587 17.4592 29.5902C18.2241 29.3067 18.8779 28.9572 19.3497 28.5438C19.8205 28.1314 20.1564 27.6111 20.1564 27.0003C20.1564 26.1203 19.4677 25.4366 18.6148 24.9497C17.8204 24.4961 16.7549 24.1344 15.5313 23.8865V22.855C17.3228 23.1796 18.7762 23.7198 19.7966 24.4049C20.9206 25.1595 21.469 26.0497 21.469 26.9999V26.9999C21.469 28.191 20.6064 29.3075 18.8467 30.153C17.0995 30.9926 14.5783 31.5 11.5626 31.5C8.54673 31.5 6.02559 30.9926 4.27841 30.1531C2.51879 29.3075 1.65625 28.1911 1.65625 26.9999C1.65625 26.0497 2.20471 25.1595 3.32866 24.4049Z" stroke="black" stroke-opacity="0.3"/>
<path d="M16 30.848C16 34.6368 19.7842 37.7088 24.4708 37.7088C29.1733 37.7088 32.9575 34.6368 32.9575 30.8608C32.9575 27.072 29.1575 24 24.4708 24C19.7842 23.9872 16 27.0592 16 30.848ZM23.0933 27.0976H25.8642V29.7344H29.1258V31.9616H25.8642V34.5984H23.0933V31.9616H19.8317V29.7344H23.0933V27.0976Z" fill="#5C5757"/>
</svg>
