<svg width="24" height="28" viewBox="0 0 24 28" fill="none" xmlns="http://www.w3.org/2000/svg">
<path d="M11.7203 13.7082C15.6003 13.7082 18.7457 10.6395 18.7457 6.85409C18.7457 3.06868 15.6003 0 11.7203 0C7.84022 0 4.69482 3.06868 4.69482 6.85409C4.69482 10.6395 7.84022 13.7082 11.7203 13.7082Z" fill="white"/>
<path d="M11.7204 15.9929C8.83655 15.9739 6.04697 16.9939 3.88627 18.8573C1.72558 20.7208 0.345779 23.2967 0.011312 26.0912C-0.0119855 26.2552 0.000795488 26.4221 0.0488034 26.5809C0.0968113 26.7397 0.178944 26.8867 0.289732 27.012C0.400519 27.1374 0.537418 27.2383 0.69131 27.308C0.845201 27.3778 1.01255 27.4147 1.18222 27.4164H22.118C22.2877 27.4147 22.4551 27.3778 22.609 27.308C22.7628 27.2383 22.8997 27.1374 23.0105 27.012C23.1213 26.8867 23.2035 26.7397 23.2515 26.5809C23.2995 26.4221 23.3123 26.2552 23.289 26.0912C22.9573 23.3201 21.5976 20.7633 19.4665 18.903C17.3353 17.0426 14.58 16.0075 11.7204 15.9929Z" fill="white"/>
</svg>
